# File created by Blade
# Date/Time:  Tue Apr 07 21:36:59 2015
# Frame Rate: 120.000 fps
#------------------------------------------------------
:FULLY-SPECIFIED
:DEGREES
903
root -4.308890 33.009934 6.809409 553.483987 177.546027 -542.433182
Spine -13.692549 -7.658754 2.734224
Head 9.891376 -2.023321 -3.856109
LeftShoulder -22.790439 39.335145 16.397374
LeftArm 59.649238 -55.753560 -58.243778
LeftForeArm 12.244960 -0.000000 -1.041793
LeftHand 1.652308 -0.000000 3.744958
LeftHandThumb1 -26.253704 0.000000 33.147579
RightShoulder -6.479001 4.054253 -31.042632
RightArm 12.642020 15.221142 42.282647
RightForeArm -15.630213 -0.000000 2.306950
RightHand 0.380150 -0.000000 1.600593
RightHandThumb1 -24.326973 -0.000000 -32.862282
LeftUpLeg -7.597787 -4.689365 6.445417
LeftLeg -3.563685 -0.000000 0.000000
LeftFoot -5.803777 8.018908 -20.687579
LeftToeBase -10.941443 -0.000000 0.000000
RightUpLeg -5.821821 2.850178 1.681380
RightLeg -6.248785 -0.000000 0.000000
RightFoot -3.418167 -14.958912 7.720961
RightToeBase -3.098730 -0.000000 0.000000
904
root -4.312717 33.009396 6.819682 553.463870 177.522221 -542.451419
Spine -13.693863 -7.649872 2.758424
Head 9.930622 -1.993133 -3.875579
LeftShoulder -22.748583 39.398852 16.393110
LeftArm 59.671314 -55.692394 -58.275655
LeftForeArm 12.153045 -0.000000 -1.085519
LeftHand 1.601817 -0.000000 3.662714
LeftHandThumb1 -26.253704 0.000000 33.147579
RightShoulder -6.481106 3.960867 -30.996468
RightArm 12.754720 15.247688 42.294115
RightForeArm -15.676448 -0.000000 2.286815
RightHand 0.443262 -0.000000 1.800170
RightHandThumb1 -24.326973 -0.000000 -32.862282
LeftUpLeg -7.543737 -4.627939 6.452688
LeftLeg -3.609278 -0.000000 0.000000
LeftFoot -5.764498 8.002097 -20.665544
LeftToeBase -10.868273 -0.000000 0.000000
RightUpLeg -5.771461 2.724081 1.722367
RightLeg -6.258462 -0.000000 0.000000
RightFoot -3.425497 -14.818220 7.773814
RightToeBase -3.010705 -0.000000 0.000000
905
root -4.317650 33.008491 6.830683 553.457054 177.505354 -542.482653
Spine -13.710779 -7.622942 2.791245
Head 9.967039 -1.950701 -3.880894
LeftShoulder -22.727600 39.449665 16.403472
LeftArm 59.706796 -55.579389 -58.308275
LeftForeArm 12.058441 -0.000000 -1.182690
LeftHand 1.692509 -0.000000 3.657038
LeftHandThumb1 -26.253704 0.000000 33.147579
RightShoulder -6.502124 3.879787 -30.978734
RightArm 12.866483 15.178799 42.323220
RightForeArm -15.731718 -0.000000 2.221549
RightHand 0.488313 0.000000 1.896262
RightHandThumb1 -24.326973 -0.000000 -32.862282
LeftUpLeg -7.502331 -4.502640 6.471781
LeftLeg -3.651530 -0.000000 0.000000
LeftFoot -5.705976 7.903659 -20.650346
LeftToeBase -10.892261 -0.000000 0.000000
RightUpLeg -5.735495 2.602005 1.779816
RightLeg -6.272162 -0.000000 0.000000
RightFoot -3.402188 -14.693346 7.807156
RightToeBase -2.959600 -0.000000 0.000000
906
root -4.322235 33.007765 6.842484 553.450442 177.499861 -542.504313
Spine -13.734381 -7.604478 2.810428
Head 10.020866 -1.895905 -3.874884
LeftShoulder -22.710294 39.514606 16.399635
LeftArm 59.761600 -55.515724 -58.368460
LeftForeArm 11.986309 -0.000000 -1.239372
LeftHand 1.636139 -0.000000 3.470584
LeftHandThumb1 -26.253704 0.000000 33.147579
RightShoulder -6.487700 3.848467 -30.946952
RightArm 12.920155 15.093660 42.311391
RightForeArm -15.696606 -0.000000 2.196853
RightHand 0.464484 -0.000000 1.932461
RightHandThumb1 -24.326973 -0.000000 -32.862282
LeftUpLeg -7.452682 -4.379916 6.484587
LeftLeg -3.701814 -0.000000 0.000000
LeftFoot -5.629768 7.801068 -20.643358
LeftToeBase -10.923031 -0.000000 0.000000
RightUpLeg -5.702795 2.514034 1.822588
RightLeg -6.274250 -0.000000 0.000000
RightFoot -3.402322 -14.596581 7.826278
RightToeBase -2.930207 -0.000000 0.000000
907
root -4.327968 33.007289 6.854522 553.448868 177.492783 -542.525356
Spine -13.761217 -7.584012 2.825687
Head 10.068666 -1.842472 -3.851685
LeftShoulder -22.710742 39.594495 16.381894
LeftArm 59.853689 -55.458772 -58.449714
LeftForeArm 11.862344 -0.000000 -1.303770
LeftHand 1.611518 -0.000000 3.368093
LeftHandThumb1 -26.253704 0.000000 33.147579
RightShoulder -6.486432 3.783854 -30.905151
RightArm 13.000772 15.038170 42.294884
RightForeArm -15.622769 -0.000000 2.173654
RightHand 0.411854 -0.000000 1.901247
RightHandThumb1 -24.326973 -0.000000 -32.862282
LeftUpLeg -7.403721 -4.274410 6.504548
LeftLeg -3.765775 -0.000000 0.000000
LeftFoot -5.557737 7.700760 -20.704834
LeftToeBase -10.832438 -0.000000 0.000000
RightUpLeg -5.669969 2.441391 1.863508
RightLeg -6.291897 -0.000000 0.000000
RightFoot -3.382430 -14.518954 7.832341
RightToeBase -2.902546 -0.000000 0.000000
908
root -4.334174 33.006849 6.867190 553.452175 177.503278 -542.542920
Spine -13.800509 -7.554911 2.830611
Head 10.130999 -1.779565 -3.817935
LeftShoulder -22.673477 39.613707 16.405485
LeftArm 59.824244 -55.386165 -58.428693
LeftForeArm 11.733614 -0.000000 -1.384506
LeftHand 1.673120 -0.000000 3.375872
LeftHandThumb1 -26.253704 0.000000 33.147579
RightShoulder -6.467925 3.774345 -30.869845
RightArm 13.037513 15.005517 42.281639
RightForeArm -15.582714 -0.000000 2.151935
RightHand 0.353704 0.000000 1.894988
RightHandThumb1 -24.326973 -0.000000 -32.862282
LeftUpLeg -7.347126 -4.193607 6.525190
LeftLeg -3.849067 -0.000000 0.000000
LeftFoot -5.478081 7.651247 -20.776880
LeftToeBase -10.811638 -0.000000 0.000000
RightUpLeg -5.641413 2.450903 1.889004
RightLeg -6.315588 -0.000000 0.000000
RightFoot -3.372967 -14.505290 7.860192
RightToeBase -2.870263 -0.000000 0.000000
909
root -4.340170 33.006717 6.880042 553.459393 177.516172 -542.556146
Spine -13.841308 -7.523632 2.829491
Head 10.192005 -1.732754 -3.772337
LeftShoulder -22.668749 39.646223 16.397365
LeftArm 59.920358 -55.356874 -58.517281
LeftForeArm 11.764931 -0.000000 -1.458893
LeftHand 1.652314 -0.000000 3.127773
LeftHandThumb1 -26.253704 0.000000 33.147579
RightShoulder -6.453096 3.772042 -30.849522
RightArm 13.052140 14.963463 42.278009
RightForeArm -15.548308 -0.000000 2.132578
RightHand 0.479560 -0.000000 1.988717
RightHandThumb1 -24.326973 -0.000000 -32.862282
LeftUpLeg -7.289837 -4.119402 6.542439
LeftLeg -3.942571 -0.000000 0.000000
LeftFoot -5.379635 7.606853 -20.820293
LeftToeBase -10.920149 -0.000000 0.000000
RightUpLeg -5.621237 2.458578 1.912561
RightLeg -6.329413 -0.000000 0.000000
RightFoot -3.370489 -14.511096 7.878059
RightToeBase -2.818270 -0.000000 0.000000
910
root -4.345186 33.006158 6.892405 553.471153 177.518527 -542.557997
Spine -13.888835 -7.521263 2.819271
Head 10.256905 -1.688761 -3.709133
LeftShoulder -22.663277 39.650459 16.407241
LeftArm 59.968818 -55.328006 -58.569748
LeftForeArm 11.731116 0.000000 -1.517765
LeftHand 1.646299 -0.000000 3.200727
LeftHandThumb1 -26.253704 0.000000 33.147579
RightShoulder -6.426841 3.749359 -30.829266
RightArm 13.100076 14.981759 42.297863
RightForeArm -15.577045 0.000000 2.116483
RightHand 0.488943 0.000000 1.974793
RightHandThumb1 -24.326973 -0.000000 -32.862282
LeftUpLeg -7.248419 -4.062737 6.550014
LeftLeg -4.021957 -0.000000 0.000000
LeftFoot -5.302655 7.575104 -20.882655
LeftToeBase -10.882384 -0.000000 0.000000
RightUpLeg -5.608048 2.470813 1.922403
RightLeg -6.340412 -0.000000 0.000000
RightFoot -3.362075 -14.525245 7.848983
RightToeBase -2.838954 -0.000000 0.000000
911
root -4.348853 33.006256 6.904956 553.483599 177.525893 -542.550866
Spine -13.940823 -7.515688 2.809563
Head 10.333514 -1.660581 -3.677905
LeftShoulder -22.671105 39.678270 16.371111
LeftArm 60.025896 -55.319408 -58.595805
LeftForeArm 11.770953 -0.000000 -1.573893
LeftHand 1.653831 0.000000 3.217045
LeftHandThumb1 -26.253704 0.000000 33.147579
RightShoulder -6.396701 3.766896 -30.822755
RightArm 13.111423 14.998714 42.310734
RightForeArm -15.624185 -0.000000 2.129581
RightHand 0.514627 -0.000000 1.854634
RightHandThumb1 -24.326973 -0.000000 -32.862282
LeftUpLeg -7.200525 -4.045262 6.551446
LeftLeg -4.110405 -0.000000 0.000000
LeftFoot -5.225859 7.587162 -20.903931
LeftToeBase -10.837723 -0.000000 0.000000
RightUpLeg -5.597319 2.490959 1.923079
RightLeg -6.344552 -0.000000 0.000000
RightFoot -3.360192 -14.557615 7.838393
RightToeBase -2.816253 -0.000000 0.000000
912
root -4.351162 33.006314 6.917850 553.501731 177.516832 -542.535411
Spine -14.000591 -7.529152 2.798680
Head 10.402808 -1.619958 -3.636873
LeftShoulder -22.690084 39.694711 16.350586
LeftArm 59.924809 -55.227197 -58.454837
LeftForeArm 11.699491 -0.000000 -1.603248
LeftHand 1.660442 -0.000000 3.203589
LeftHandThumb1 -26.253704 0.000000 33.147579
RightShoulder -6.381435 3.761915 -30.840410
RightArm 13.146356 14.993928 42.351238
RightForeArm -15.677601 0.000000 2.154471
RightHand 0.435408 -0.000000 1.827416
RightHandThumb1 -24.326973 -0.000000 -32.862282
LeftUpLeg -7.168903 -4.025305 6.541034
LeftLeg -4.178769 -0.000000 0.000000
LeftFoot -5.151258 7.592778 -20.966957
LeftToeBase -10.834596 -0.000000 0.000000
RightUpLeg -5.585703 2.515150 1.912266
RightLeg -6.358104 -0.000000 0.000000
RightFoot -3.370577 -14.601403 7.864429
RightToeBase -2.850189 -0.000000 0.000000
913
root -4.354269 33.006269 6.932042 553.507682 177.510305 -542.526055
Spine -14.047499 -7.543708 2.792865
Head 10.469685 -1.597782 -3.597833
LeftShoulder -22.703259 39.684531 16.324901
LeftArm 60.023718 -55.248068 -58.561833
LeftForeArm 11.794744 0.000000 -1.624736
LeftHand 1.677237 -0.000000 3.247592
LeftHandThumb1 -26.253704 0.000000 33.147579
RightShoulder -6.365951 3.784473 -30.862276
RightArm 13.169295 14.978343 42.383970
RightForeArm -15.699752 0.000000 2.158097
RightHand 0.503493 -0.000000 1.774192
RightHandThumb1 -24.326973 -0.000000 -32.862282
LeftUpLeg -7.121148 -3.995031 6.536669
LeftLeg -4.251319 -0.000000 0.000000
LeftFoot -5.064664 7.577477 -20.985584
LeftToeBase -10.875431 -0.000000 0.000000
RightUpLeg -5.561772 2.531971 1.909542
RightLeg -6.370268 -0.000000 0.000000
RightFoot -3.378662 -14.633404 7.875977
RightToeBase -2.803327 -0.000000 0.000000
914
root -4.357206 33.006499 6.946537 553.517086 177.490034 -542.506387
Spine -14.098442 -7.547629 2.767172
Head 10.540357 -1.591200 -3.538719
LeftShoulder -22.709781 39.682094 16.317636
LeftArm 60.067670 -55.220186 -58.578362
LeftForeArm 11.828565 0.000000 -1.625905
LeftHand 1.670331 -0.000000 3.291883
LeftHandThumb1 -26.253704 0.000000 33.147579
RightShoulder -6.377920 3.805639 -30.885490
RightArm 13.177054 14.954211 42.413008
RightForeArm -15.757843 -0.000000 2.169564
RightHand 0.565626 -0.000000 1.923304
RightHandThumb1 -24.326973 -0.000000 -32.862282
LeftUpLeg -7.084463 -3.990651 6.522372
LeftLeg -4.309794 -0.000000 0.000000
LeftFoot -5.004446 7.585273 -21.044359
LeftToeBase -10.940589 -0.000000 0.000000
RightUpLeg -5.537262 2.520803 1.903066
RightLeg -6.384165 -0.000000 0.000000
RightFoot -3.392448 -14.668934 7.890352
RightToeBase -2.810028 -0.000000 0.000000
915
root -4.361365 33.007488 6.962062 553.519945 177.473377 -542.502907
Spine -14.151403 -7.575872 2.774585
Head 10.625115 -1.549010 -3.514342
LeftShoulder -22.730937 39.682129 16.276788
LeftArm 60.076572 -55.230125 -58.583847
LeftForeArm 11.885257 -0.000000 -1.590829
LeftHand 1.656773 -0.000000 3.315452
LeftHandThumb1 -26.253704 0.000000 33.147579
RightShoulder -6.343322 3.845386 -30.900012
RightArm 13.169640 14.941162 42.406452
RightForeArm -15.753344 -0.000000 2.208381
RightHand 0.530559 -0.000000 1.872777
RightHandThumb1 -24.326973 -0.000000 -32.862282
LeftUpLeg -7.036505 -3.956308 6.518098
LeftLeg -4.377495 -0.000000 0.000000
LeftFoot -4.934926 7.600221 -21.038637
LeftToeBase -10.926039 -0.000000 0.000000
RightUpLeg -5.498975 2.539970 1.911921
RightLeg -6.414346 -0.000000 0.000000
RightFoot -3.386469 -14.721995 7.910366
RightToeBase -2.827571 -0.000000 0.000000
